<svg preserveAspectRatio="none" width="100%" height="100%" overflow="visible" style="display: block;" viewBox="0 0 102.061 23.7657" fill="none" xmlns="http://www.w3.org/2000/svg">
<g id="Icon Container">
<path id="Vector" d="M17.9124 16.0697C17.9124 17.4427 17.6865 18.617 17.2349 19.5926C16.7832 20.5681 16.169 21.363 15.3922 21.9772C14.6153 22.5915 13.712 23.0431 12.6823 23.3322C11.6525 23.6212 10.5595 23.7657 9.40332 23.7657C8.22903 23.7657 7.07281 23.6122 5.93466 23.3051C4.81457 23.016 3.81191 22.5463 2.92668 21.8959C2.05952 21.2275 1.35494 20.3694 0.812966 19.3216C0.270989 18.2738 0 17.0092 0 15.5278V9.62029C0 8.12084 0.270989 6.8472 0.812966 5.79939C1.35494 4.75158 2.06855 3.90249 2.95378 3.25213C3.83901 2.60176 4.8507 2.13205 5.98886 1.843C7.12701 1.53588 8.29226 1.38232 9.48461 1.38232C10.7312 1.38232 11.8693 1.50878 12.8991 1.7617C13.9288 2.01462 14.7057 2.33077 15.2296 2.71015C15.7896 3.1076 16.178 3.60441 16.3948 4.20057C16.6116 4.77868 16.5574 5.35678 16.2322 5.93488C15.9612 6.40459 15.5999 6.73881 15.1483 6.93753C14.6966 7.13625 14.236 7.19045 13.7662 7.10012C13.4591 7.04593 13.1791 6.96463 12.9262 6.85624C12.6913 6.72978 12.4745 6.62138 12.2758 6.53105C11.6435 6.2962 10.7131 6.17877 9.48461 6.17877C9.0149 6.17877 8.54518 6.26007 8.07547 6.42266C7.60575 6.56718 7.18121 6.79301 6.80182 7.10012C6.42244 7.38917 6.11532 7.76855 5.88046 8.23826C5.6456 8.70797 5.52817 9.24994 5.52817 9.86418V15.2839C5.52817 15.9162 5.63657 16.4672 5.85336 16.9369C6.07015 17.3885 6.35921 17.7679 6.72053 18.075C7.09991 18.3641 7.51543 18.5899 7.96707 18.7525C8.43679 18.897 8.91554 18.9693 9.40332 18.9693C9.85496 18.9693 10.2976 18.9151 10.7312 18.8067C11.1647 18.6802 11.5441 18.5086 11.8693 18.2918C12.1945 18.057 12.4565 17.7679 12.6552 17.4247C12.8539 17.0634 12.9533 16.6388 12.9533 16.151V15.8259C12.9533 15.5549 12.9081 15.3833 12.8178 15.311C12.7455 15.2387 12.5829 15.2026 12.33 15.2026H11.4357C11.0383 15.2026 10.7041 15.1394 10.4331 15.0129C10.1621 14.8684 9.93626 14.6877 9.7556 14.4709C9.59301 14.2541 9.46655 14.0103 9.37622 13.7393C9.30395 13.4683 9.26782 13.1973 9.26782 12.9263C9.26782 12.6553 9.30395 12.3843 9.37622 12.1134C9.46655 11.8243 9.59301 11.5714 9.7556 11.3546C9.93626 11.1197 10.1621 10.9301 10.4331 10.7855C10.7221 10.641 11.0563 10.5687 11.4357 10.5687H13.9017C14.6966 10.5687 15.356 10.641 15.88 10.7855C16.4039 10.912 16.8103 11.1378 17.0994 11.463C17.4065 11.7701 17.6143 12.1856 17.7227 12.7095C17.8491 13.2154 17.9124 13.8477 17.9124 14.6064V16.0697Z" fill="var(--fill-0, #8458DC)"/>
<path id="Subtract" d="M29.137 4.6958C29.3356 4.69583 29.5434 4.71438 29.76 4.75049C29.9948 4.76857 30.2117 4.8223 30.4104 4.9126C30.9342 5.12935 31.3225 5.4909 31.5755 5.99658C31.8464 6.50242 31.9363 7.07229 31.846 7.70459C31.7556 8.33655 31.4849 8.84193 31.0335 9.22119C30.5999 9.60057 30.0847 9.79053 29.4885 9.79053H28.8655C28.6488 9.77247 28.4411 9.77248 28.2424 9.79053C27.4838 9.84471 26.6414 10.0537 26.3401 10.3296C26.1145 10.5363 25.5863 10.9982 25.7766 12.0942C25.8465 12.4962 26.2789 13.6011 26.719 14.9575C25.2134 15.0709 24.0823 15.5571 24.0823 16.1382C24.0828 16.8027 25.5629 17.3405 27.3899 17.3413C27.4356 17.543 27.4769 17.745 27.5149 17.9458C27.4748 17.9453 27.4343 17.9448 27.3938 17.9448C25.5647 17.9449 24.0823 18.4165 24.0823 18.9985C24.0828 19.5804 25.565 20.0522 27.3938 20.0522C27.5018 20.0522 27.6088 20.0496 27.7141 20.0464C27.6931 20.7818 27.5478 21.4322 27.2122 21.9214C25.5591 24.3301 21.3713 24.4809 19.5647 21.771C17.7586 19.0604 20.2757 7.40576 20.2757 7.40576C20.2757 6.95424 20.348 6.56584 20.4924 6.24072C20.655 5.89759 20.8626 5.61761 21.1155 5.40088C21.3684 5.16605 21.6575 4.99462 21.9827 4.88623C22.3078 4.75982 22.6508 4.69583 23.012 4.6958C23.5359 4.6958 24.0242 4.82276 24.4758 5.07568C24.9453 5.32856 25.2977 5.70776 25.5325 6.21338C26.0382 5.74387 26.5982 5.37396 27.2122 5.10303C27.8264 4.83204 28.4685 4.6958 29.137 4.6958Z" fill="var(--fill-0, #8458DC)"/>
<path id="Union" d="M41.5967 3.13843C42.1599 1.13754 43.4605 -0.247193 44.501 0.0456543C45.5414 0.338645 45.9284 2.19824 45.3653 4.19897C45.0964 5.15413 44.6565 5.96629 44.1602 6.52515C44.6102 6.72135 45.0237 6.97045 45.3995 7.27515C46.0859 7.79898 46.628 8.53025 47.0254 9.46948C47.441 10.4089 47.6485 11.6107 47.6485 13.074C47.6485 13.074 48.6978 21.1312 47.6485 22.7751C46.5992 24.419 43.7388 23.6782 43.2872 22.9646C42.8361 22.2514 43.287 21.71 43.1504 21.6375C43.0134 21.5652 42.0122 22.5134 41.3077 22.8025C40.6031 23.0915 39.8442 23.2361 39.0313 23.2361H38.4356C37.8755 23.2361 37.2696 23.1453 36.6192 22.9646C35.969 22.802 35.3637 22.5128 34.8038 22.0974C34.2619 21.6819 33.8012 21.1221 33.4219 20.4177C33.0607 19.7133 32.88 18.8281 32.8799 17.7625C32.8799 16.7327 33.0606 15.8738 33.4219 15.1873C33.7832 14.5009 34.2624 13.9504 34.8584 13.5349C35.4726 13.1194 36.1769 12.821 36.9717 12.6404C37.7847 12.4597 38.6343 12.3699 39.5196 12.3699H42.3106C42.2925 11.9726 42.2109 11.6472 42.0665 11.3943C41.94 11.1233 41.7593 10.9148 41.5245 10.7703C41.3077 10.6077 41.0454 10.4993 40.7383 10.4451C40.4494 10.3729 40.1424 10.3367 39.8174 10.3367C39.5103 10.3367 39.212 10.3645 38.9229 10.4187C38.634 10.4729 38.327 10.5452 38.002 10.6355C37.7852 10.7078 37.5767 10.7883 37.378 10.8787C37.1974 10.969 36.9804 11.0691 36.7276 11.1775C36.4748 11.3038 36.2039 11.3762 35.9151 11.3943C35.6441 11.3943 35.3726 11.3582 35.1016 11.2859C34.8307 11.1956 34.5776 11.0593 34.3428 10.8787C34.1263 10.6981 33.9545 10.4726 33.8282 10.2019C33.5752 9.65993 33.5391 9.13548 33.7198 8.62964C33.9004 8.10576 34.2257 7.66281 34.6954 7.30151C35.0566 7.03056 35.4635 6.8054 35.9151 6.62476C35.9961 6.59236 36.078 6.56206 36.1602 6.53198C35.683 6.04899 35.246 5.36372 34.9366 4.55347C34.2276 2.69661 34.4583 0.883565 35.4522 0.503662C36.4465 0.124006 37.828 1.32226 38.5372 3.17944C38.9165 4.17296 39.0234 5.15336 38.8916 5.90894C39.3604 5.86194 39.8136 5.83862 40.251 5.83862C40.6543 5.83863 41.0497 5.85822 41.4375 5.89526C41.2711 5.13811 41.3101 4.15665 41.5967 3.13843ZM41.7823 16.2898C41.3337 15.9907 39.9938 16.1374 39.9756 16.1394C39.2229 16.29 38.8912 16.4881 38.6202 16.741C38.3492 16.9758 38.2452 17.3015 38.2452 17.7351C38.2452 18.1867 38.3814 18.5213 38.6524 18.738C38.9233 18.9545 39.2934 19.0632 39.7627 19.0632H40.1426C40.3955 19.0632 40.6485 19.0271 40.9014 18.9548C41.1543 18.8826 41.3804 18.7742 41.5791 18.6296C41.7958 18.4852 41.9674 18.3043 42.0938 18.0876C42.2383 17.871 42.3105 17.6177 42.3106 17.3289C42.3106 17.3289 42.2337 16.591 41.7823 16.2898Z" fill="var(--fill-0, #8458DC)"/>
<path id="Subtract_2" d="M51.1568 5.56079C51.8793 5.36217 52.5838 5.40763 53.2701 5.69653C53.9747 5.98558 54.4723 6.56375 54.7613 7.43091L57.4703 15.8049L60.0992 7.40356C60.2256 6.98824 60.4064 6.64518 60.6412 6.37427C60.894 6.08531 61.174 5.8684 61.481 5.72388C61.8062 5.57935 62.15 5.4978 62.5113 5.47974C62.8726 5.44364 63.234 5.47048 63.5953 5.56079C63.9385 5.65112 64.2545 5.81424 64.5435 6.04907C64.8325 6.26581 65.0587 6.53649 65.2213 6.86157C65.3839 7.16869 65.483 7.51247 65.5191 7.89185C65.5552 8.27113 65.4922 8.65954 65.3297 9.05688C65.3297 9.05688 64.8448 10.4701 64.1666 12.384C62.6087 12.4821 61.4237 12.9751 61.4234 13.5696C61.4234 14.0548 62.2131 14.4716 63.3502 14.6624C63.2212 15.0176 63.0882 15.3766 62.9556 15.7366C61.7083 15.8661 60.822 16.1947 60.8219 16.5803C60.8219 16.9012 61.4355 17.1818 62.3599 17.342C61.4917 19.637 60.6564 21.6875 60.2076 22.3625C59.0145 24.1569 55.8529 24.3075 54.5709 22.3625C53.2888 20.4175 49.314 9.02954 49.314 9.02954C49.1515 8.63222 49.0885 8.25306 49.1246 7.89185C49.1788 7.51247 49.2955 7.16869 49.4762 6.86157C49.6568 6.53644 49.8922 6.26584 50.1812 6.04907C50.4703 5.83229 50.7955 5.66918 51.1568 5.56079Z" fill="var(--fill-0, #8458DC)"/>
<path id="Subtract_3" d="M71.5826 6.41431C72.3413 6.41435 72.9918 6.63116 73.5337 7.0647C74.0937 7.49827 74.3736 8.18494 74.3736 9.12427C74.3736 9.12427 79.4674 21.1356 74.3736 23.1614C72.348 23.9669 70.8171 23.9668 68.7916 23.1614C66.7669 22.3562 66.3528 19.9737 66.5875 17.3948C68.0089 17.2933 69.0584 16.9421 69.0591 16.5227C69.0591 16.1272 68.1266 15.7905 66.8287 15.6682C66.8888 15.3394 66.9547 15.0122 67.0269 14.6897C68.5306 14.5759 69.6602 14.0925 69.6607 13.512C69.6607 13.0123 68.8242 12.583 67.6324 12.4006C68.2071 10.5009 68.7916 9.12427 68.7916 9.12427C68.7916 8.18489 69.0621 7.49826 69.6041 7.0647C70.1641 6.63113 70.8238 6.41431 71.5826 6.41431ZM71.5826 0.262939C72.3412 0.262976 73.0002 0.462279 73.5601 0.859619C74.1201 1.23899 74.4009 1.87092 74.4009 2.7561C74.4009 3.20764 74.3193 3.59601 74.1568 3.92114C74.0123 4.22826 73.813 4.48121 73.5601 4.67993C73.3073 4.87853 73.0096 5.02321 72.6666 5.11353C72.3234 5.20384 71.9619 5.24925 71.5826 5.24927C71.2032 5.24927 70.8418 5.20383 70.4986 5.11353C70.1553 5.0232 69.857 4.87866 69.6041 4.67993C69.3512 4.48123 69.1436 4.22819 68.981 3.92114C68.8365 3.59599 68.7642 3.20767 68.7642 2.7561C68.7642 1.87103 69.0442 1.23901 69.6041 0.859619C70.1641 0.462173 70.8238 0.262939 71.5826 0.262939Z" fill="var(--fill-0, #8458DC)"/>
<path id="Vector_2" d="M80.9161 11.2521H80.0218C79.1727 11.2521 78.5585 11.0262 78.1791 10.5746C77.8178 10.123 77.6371 9.60808 77.6371 9.02998C77.6371 8.75899 77.6732 8.488 77.7455 8.21702C77.8358 7.94603 77.9713 7.70214 78.152 7.48536C78.3507 7.26857 78.6036 7.09694 78.9108 6.97048C79.2179 6.82596 79.5882 6.7537 80.0218 6.7537H80.9161V3.93544C80.9161 3.4838 80.9884 3.08636 81.1329 2.74311C81.2955 2.39986 81.5032 2.11984 81.7561 1.90305C82.0091 1.68626 82.2891 1.52367 82.5962 1.41528C82.9214 1.30688 83.2556 1.25269 83.5989 1.25269C83.9421 1.25269 84.2673 1.30688 84.5744 1.41528C84.8996 1.52367 85.1887 1.68626 85.4416 1.90305C85.6945 2.11984 85.8932 2.39986 86.0378 2.74311C86.2004 3.08636 86.2817 3.4838 86.2817 3.93544V6.7537H87.8805C88.3141 6.7537 88.6754 6.82596 88.9645 6.97048C89.2716 7.09694 89.5155 7.26857 89.6961 7.48536C89.8948 7.70214 90.0394 7.94603 90.1297 8.21702C90.22 8.488 90.2652 8.75899 90.2652 9.02998C90.2652 9.60808 90.0755 10.123 89.6961 10.5746C89.3348 11.0262 88.7296 11.2521 87.8805 11.2521H86.2817V16.6898C86.2817 17.1054 86.3155 18.37 86.4781 18.4964C86.6587 18.6229 86.8454 18.7794 87.0803 18.7975C87.279 18.8156 87.6704 18.6831 87.833 18.647C87.9956 18.5928 88.6159 18.4964 88.8869 18.4964C89.3385 18.4964 89.5975 18.5265 89.9407 18.7975C90.284 19.0685 90.6031 19.5502 90.6935 20.0019C90.8199 20.5619 90.7597 21.676 90.5429 22.1096C90.3442 22.5431 89.8323 22.8439 89.3385 23.1634C89.0314 23.3621 88.7363 23.5066 88.1341 23.6361C87.5319 23.7656 87.0983 23.7656 86.6286 23.7656C85.7253 23.7656 84.8996 23.5367 84.195 23.338C83.4905 23.1393 82.8943 22.8231 82.4065 22.3896C81.9187 21.956 81.5484 21.3869 81.2955 20.6824C81.0425 19.9778 80.9161 19.1106 80.9161 18.0809V11.2521Z" fill="var(--fill-0, #8458DC)"/>
<path id="Subtract_4" d="M96.9015 18.292C97.8226 18.2921 98.5364 18.5441 99.0421 19.0498C99.5479 19.5376 99.8009 20.1974 99.8009 21.0283C99.8009 21.8593 99.548 22.5283 99.0421 23.0342C98.5364 23.5218 97.8226 23.7655 96.9015 23.7656C95.9802 23.7656 95.2657 23.5219 94.7599 23.0342C94.2541 22.5464 94.0011 21.8774 94.0011 21.0283C94.0011 20.1795 94.2543 19.5112 94.7599 19.0234C95.2657 18.5357 95.9801 18.292 96.9015 18.292ZM96.9015 0C97.2445 5.31943e-05 97.5785 0.063125 97.9035 0.189453C98.2466 0.297816 98.5451 0.469351 98.798 0.704102C99.069 0.920891 99.2765 1.20167 99.421 1.54492C99.5836 1.86997 99.7949 2.03279 99.9454 2.72168C99.9454 2.72168 100.233 3.4407 100.598 4.55859C99.1819 4.69542 98.1388 5.16376 98.1388 5.72168C98.1389 6.36677 99.5335 6.8917 101.286 6.92285C101.362 7.22134 101.438 7.528 101.508 7.84082C99.9385 7.91167 98.7411 8.28338 98.7404 8.73145C98.7404 9.21153 100.114 9.60295 101.848 9.63184C102.332 12.7997 102.142 16.0625 99.6652 17.0176C97.6509 17.7943 96.1512 17.7943 94.1369 17.0176C88.9139 15.0031 93.923 2.72168 93.923 2.72168C94.0735 2.27023 94.2092 1.87002 94.3537 1.54492C94.5162 1.20167 94.7238 0.920891 94.9767 0.704102C95.2296 0.469317 95.5188 0.297847 95.8439 0.189453C96.1871 0.0629926 96.5402 0 96.9015 0Z" fill="var(--fill-0, #8458DC)"/>
</g>
</svg>
